<?xml version="1.0" encoding="utf-8"?>
<!-- Generator: Adobe Illustrator 24.0.2, SVG Export Plug-In . SVG Version: 6.00 Build 0)  -->
<svg version="1.1" id="Layer_1" xmlns="http://www.w3.org/2000/svg" xmlns:xlink="http://www.w3.org/1999/xlink" x="0px" y="0px"
	 viewBox="0 0 48 48" style="enable-background:new 0 0 48 48;" xml:space="preserve">
<style type="text/css">
	.st0{fill:#FFFFFF;}
</style>
<path class="st0" d="M24,40c-1.6-1.3-3.3-2.2-5.2-3c-1.9-0.7-3.8-1-5.8-1c-1.4,0-2.8,0.2-4.1,0.5c-1.3,0.4-2.6,0.9-3.9,1.5
	c-0.7,0.4-1.4,0.3-2,0c-0.6-0.4-1-1-1-1.8V12.2c0-0.4,0.1-0.7,0.3-1.1c0.2-0.3,0.5-0.6,0.8-0.8C4.6,9.6,6.2,9,7.9,8.6
	C9.6,8.2,11.3,8,13,8c1.9,0,3.8,0.2,5.7,0.8S22.3,10,24,11v25.3c1.7-1.1,3.5-1.9,5.4-2.5c1.9-0.6,3.8-0.8,5.6-0.8
	c1.2,0,2.5,0.1,3.9,0.3c1.4,0.2,2.8,0.7,4.1,1.5V9.6c0.3,0.1,0.7,0.3,1,0.4c0.3,0.1,0.6,0.3,0.9,0.4c0.3,0.2,0.6,0.5,0.8,0.8
	s0.3,0.7,0.3,1v24.1c0,0.8-0.3,1.3-1,1.8c-0.6,0.4-1.3,0.4-2,0c-1.2-0.7-2.5-1.2-3.9-1.5C37.8,36.2,36.4,36,35,36
	c-2,0-3.9,0.4-5.8,1C27.3,37.8,25.6,38.7,24,40z M27,31.6V14L40,1v19.4L27,31.6z M21,34.8V12.9c-1.1-0.6-2.5-1.1-4-1.4
	c-1.5-0.3-2.8-0.5-4-0.5c-1.6,0-3,0.2-4.4,0.5S6.1,12.3,5,12.8v22c1.2-0.6,2.4-1,3.8-1.3s2.8-0.5,4.3-0.5c1.5,0,2.9,0.2,4.2,0.5
	S19.8,34.2,21,34.8z M21,34.8V12.9V34.8z"/>
</svg>
