<?xml version="1.0" encoding="utf-8"?>
<!-- Generator: Adobe Illustrator 24.0.2, SVG Export Plug-In . SVG Version: 6.00 Build 0)  -->
<svg version="1.1" id="Layer_1" xmlns="http://www.w3.org/2000/svg" xmlns:xlink="http://www.w3.org/1999/xlink" x="0px" y="0px"
	 viewBox="0 0 48 48" style="enable-background:new 0 0 48 48;" xml:space="preserve">
<style type="text/css">
	.st0{fill:none;stroke:#000000;stroke-miterlimit:10;}
</style>
<path class="st0" d="M6,44V24.1l3.1-9.2c0.3-0.8,0.7-1.4,1.3-1.8c0.6-0.4,1.3-0.6,2-0.6c0.3,0,0.5,0,0.8,0.1s0.5,0.1,0.7,0.2
	l8.4,3.7H27v3h-5.4L15.8,17L13,25.4V44H6z M18.5,37.5v-3H42v3H18.5z M39,32c-0.8,0-1.5-0.3-2.1-0.9S36,29.8,36,29s0.3-1.5,0.9-2.1
	S38.2,26,39,26s1.5,0.3,2.1,0.9S42,28.2,42,29s-0.3,1.5-0.9,2.1S39.8,32,39,32z M25.5,31.5c-0.8,0-1.5-0.3-2.1-0.9s-0.9-1.3-0.9-2.1
	v-3h-4v-3H24c0.4,0,0.8,0.1,1.1,0.4c0.3,0.3,0.4,0.6,0.4,1.1v2.5h6v-4h3v6c0,0.8-0.3,1.5-0.9,2.1s-1.3,0.9-2.1,0.9H25.5z M15.6,9.3
	c-1,0-1.9-0.4-2.6-1.1C12.4,7.5,12,6.7,12,5.7s0.4-1.9,1.1-2.6C13.8,2.4,14.6,2,15.6,2s1.9,0.4,2.6,1.1c0.7,0.7,1.1,1.6,1.1,2.6
	s-0.4,1.9-1.1,2.6C17.5,8.9,16.6,9.3,15.6,9.3z"/>
</svg>
