<?xml version="1.0" encoding="utf-8"?>
<!-- Generator: Adobe Illustrator 24.0.2, SVG Export Plug-In . SVG Version: 6.00 Build 0)  -->
<svg version="1.1" id="Layer_1" xmlns="http://www.w3.org/2000/svg" xmlns:xlink="http://www.w3.org/1999/xlink" x="0px" y="0px"
	 viewBox="0 0 48 48" style="enable-background:new 0 0 48 48;" xml:space="preserve">
<style type="text/css">
	.st0{fill:#FFFFFF;}
</style>
<path class="st0" d="M7,42c-0.8,0-1.5-0.3-2.1-0.9C4.3,40.5,4,39.8,4,39V14.6c0-0.8,0.3-1.5,0.9-2.1s1.3-0.9,2.1-0.9h9.5V7
	c0-0.8,0.3-1.5,0.9-2.1C18,4.3,18.7,4,19.5,4h9c0.8,0,1.5,0.3,2.1,0.9c0.6,0.6,0.9,1.3,0.9,2.1v4.6H41c0.8,0,1.5,0.3,2.1,0.9
	c0.6,0.6,0.9,1.3,0.9,2.1V39c0,0.8-0.3,1.5-0.9,2.1C42.5,41.7,41.8,42,41,42H7z M19.5,11.5h9V7h-9V11.5z M41,29.5H28.5v3h-9v-3H7V39
	h34V29.5z M22.5,29.5h3v-3h-3V29.5z M7,26.5h12.5v-3h9v3H41V14.6H7V26.5z"/>
</svg>
