<?xml version="1.0" encoding="utf-8"?>
<!-- Generator: Adobe Illustrator 24.0.2, SVG Export Plug-In . SVG Version: 6.00 Build 0)  -->
<svg version="1.1" id="Layer_1" xmlns="http://www.w3.org/2000/svg" xmlns:xlink="http://www.w3.org/1999/xlink" x="0px" y="0px"
	 viewBox="0 0 48 48" style="enable-background:new 0 0 48 48;" xml:space="preserve">
<style type="text/css">
	.st0{fill:#FFFFFF;}
</style>
<path class="st0" d="M13.1,34.8l14.5-7.1l7.1-14.5l-14.5,7.1L13.1,34.8z M24,26c-0.6,0-1-0.2-1.4-0.6C22.2,25,22,24.6,22,24
	s0.2-1,0.6-1.4C23,22.2,23.4,22,24,22s1,0.2,1.4,0.6C25.8,23,26,23.4,26,24s-0.2,1-0.6,1.4C25,25.8,24.6,26,24,26z M24,44
	c-2.7,0-5.3-0.5-7.8-1.6c-2.4-1-4.6-2.5-6.4-4.3s-3.2-3.9-4.3-6.4S4,26.7,4,24c0-2.8,0.5-5.4,1.6-7.8s2.5-4.5,4.3-6.4
	s3.9-3.2,6.4-4.3S21.3,4,24,4c2.8,0,5.4,0.5,7.8,1.6s4.6,2.5,6.3,4.3c1.8,1.8,3.2,3.9,4.3,6.4c1.1,2.4,1.6,5,1.6,7.8
	c0,2.7-0.5,5.3-1.6,7.8c-1,2.4-2.5,4.6-4.3,6.4c-1.8,1.8-3.9,3.2-6.4,4.3C29.4,43.5,26.8,44,24,44z"/>
</svg>
