<?xml version="1.0" encoding="utf-8"?>
<!-- Generator: Adobe Illustrator 24.0.2, SVG Export Plug-In . SVG Version: 6.00 Build 0)  -->
<svg version="1.1"
	 id="svg8" inkscape:version="1.0 (1.0+r73+1)" sodipodi:docname="google-scholar.svg" xmlns:cc="http://creativecommons.org/ns#" xmlns:dc="http://purl.org/dc/elements/1.1/" xmlns:inkscape="http://www.inkscape.org/namespaces/inkscape" xmlns:rdf="http://www.w3.org/1999/02/22-rdf-syntax-ns#" xmlns:sodipodi="http://sodipodi.sourceforge.net/DTD/sodipodi-0.dtd" xmlns:svg="http://www.w3.org/2000/svg"
	 xmlns="http://www.w3.org/2000/svg" xmlns:xlink="http://www.w3.org/1999/xlink" x="0px" y="0px" viewBox="0 0 384 512"
	 style="enable-background:new 0 0 384 512;" xml:space="preserve">
<style type="text/css">
	.st0{fill:#FFFFFF;}
</style>
<title  id="title833">Google Scholar</title>
<sodipodi:namedview  bordercolor="#666666" borderopacity="1.0" id="base" inkscape:current-layer="layer6" inkscape:cx="192" inkscape:cy="256" inkscape:document-rotation="0" inkscape:document-units="px" inkscape:guide-bbox="true" inkscape:pageopacity="0.0" inkscape:pageshadow="2" inkscape:window-height="713" inkscape:window-maximized="1" inkscape:window-width="1315" inkscape:window-x="51" inkscape:window-y="27" inkscape:zoom="0.75" pagecolor="#ffffff" showgrid="true" showguides="true" units="px">
	<inkscape:grid  empspacing="4" id="grid10" type="xygrid"></inkscape:grid>
	
		<sodipodi:guide  id="guide23" inkscape:color="rgb(0,0,255)" inkscape:label="baseline" inkscape:locked="true" orientation="0,1" position="384.00001,64">
		</sodipodi:guide>
</sodipodi:namedview>
<g id="layer6" inkscape:groupmode="layer" inkscape:label="icon">
	<path id="path2" class="st0" d="M343.8,106.7V79.4L363.5,64H149.6L20.5,176.3h85.7c-0.2,2.1-0.2,4-0.2,6.2
		c0,20.8,7.2,38.1,21.7,51.9c14.5,13.8,32.3,20.6,53.3,20.6c4.9,0,9.8-0.4,14.4-1c-2.9,6.5-4.4,12.5-4.4,18.1
		c0,9.9,4.5,20.4,13.5,31.6c-39.2,2.7-68.1,9.7-86.4,21.2c-10.5,6.5-19,14.7-25.4,24.5c-6.4,9.9-9.6,20.5-9.6,32
		c0,9.6,2.1,18.3,6.2,26.1c4.2,7.7,9.6,14.1,16.3,19c6.7,5,14.5,9.1,23.2,12.5c8.7,3.3,17.4,5.7,26.1,7.1c8.6,1.3,17.2,2,25.7,2
		c13.5,0,27-1.7,40.5-5.2c13.6-3.5,26.3-8.6,38.2-15.5c11.9-6.8,21.5-16.1,28.9-27.7c7.4-11.7,11.1-24.8,11.1-39.3
		c0-11-2.2-21-6.8-30.1c-4.5-9.1-9.9-16.5-16.5-22.3c-6.5-5.8-13-11.2-19.5-16c-6.5-4.8-12-9.8-16.5-14.8c-4.5-5-6.7-10.1-6.7-15
		c0-4.9,1.7-9.7,5.2-14.3c3.5-4.6,7.7-9,12.6-13.3c4.9-4.2,9.9-9,14.8-14.1c4.9-5.1,9.1-11.8,12.6-20c3.5-8.2,5.2-17.4,5.2-27.8
		c0-13.5-2.5-24.5-7.5-33.3c-0.6-1-1.2-1.8-1.9-3l56.9-46.7v17.1c-7.4,0.9-6.6,5.3-6.6,10.6V246c0,6,4.9,10.8,10.8,10.8h4
		c6,0,10.8-4.9,10.8-10.8V117.3C350.3,112,351.1,107.6,343.8,106.7L343.8,106.7z M236.4,329.1c1.1,0.8,3.7,2.8,7.7,6
		c4,3.2,6.8,5.7,8.3,7.4c1.4,1.7,3.6,4.2,6.4,7.5c2.8,3.4,4.7,6.3,5.7,8.7c1,2.5,2,5.5,3,8.9c1,3.4,1.5,7,1.5,10.6
		c0,17-6.6,29.7-19.7,37.9c-13.1,8.2-28.8,12.3-46.9,12.3c-9.2,0-18.2-1.1-27.1-3.2c-8.8-2.1-17.3-5.3-25.4-9.6
		c-8.1-4.3-14.6-10.2-19.5-17.8c-4.9-7.6-7.4-16.4-7.4-26.2c0-10.3,2.8-19.3,8.4-26.9c5.6-7.6,12.9-13.4,22-17.3
		c9.1-3.9,18.2-6.7,27.6-8.4c9.3-1.7,18.8-2.6,28.4-2.6c4.5,0,7.9,0.3,10.4,0.7c0.5,0.2,3,2.1,7.7,5.6
		C232.4,326.2,235.3,328.4,236.4,329.1L236.4,329.1z M233,228.6c-7.4,8.9-17.7,13.3-31,13.3c-11.9,0-22.3-4.8-31.3-14.3
		c-9-9.5-15.4-20.3-19.3-32.4c-3.9-12.1-5.9-24-5.9-35.6c0-13.7,3.6-25.4,10.8-35c7.2-9.6,17.5-14.5,30.9-14.5
		c11.9,0,22.4,5,31.4,15.2c9.1,10.1,15.6,21.4,19.5,34c3.9,12.5,5.9,24.5,5.9,36C244.1,208.6,240.4,219.7,233,228.6L233,228.6z"/>
</g>
</svg>
