<?xml version="1.0" encoding="utf-8"?>
<!-- Generator: Adobe Illustrator 24.0.2, SVG Export Plug-In . SVG Version: 6.00 Build 0)  -->
<svg version="1.1" id="Layer_1" xmlns="http://www.w3.org/2000/svg" xmlns:xlink="http://www.w3.org/1999/xlink" x="0px" y="0px"
	 viewBox="0 0 48 48" style="enable-background:new 0 0 48 48;" xml:space="preserve">
<style type="text/css">
	.st0{fill:#FFFFFF;}
</style>
<path class="st0" d="M18.5,25.5v-9.2l5.5-3.6l5.5,3.6v9.2h-3v-6h-5v6H18.5z M24,40c4.4-4,7.7-7.7,9.8-11s3.2-6.2,3.2-8.7
	c0-3.9-1.3-7.1-3.8-9.6S27.6,7,24,7s-6.7,1.2-9.2,3.8S11,16.5,11,20.4c0,2.5,1.1,5.4,3.2,8.7S19.7,36,24,40z M24,44
	c-5.4-4.6-9.4-8.8-12-12.7s-4-7.5-4-10.9c0-5,1.6-9,4.8-11.9S19.8,4,24,4s8,1.5,11.2,4.4S40,15.4,40,20.4c0,3.3-1.3,7-4,10.9
	S29.4,39.4,24,44z"/>
</svg>
