<?xml version="1.0" encoding="utf-8"?>
<!-- Generator: Adobe Illustrator 24.0.2, SVG Export Plug-In . SVG Version: 6.00 Build 0)  -->
<svg version="1.1" id="Layer_1" xmlns="http://www.w3.org/2000/svg" xmlns:xlink="http://www.w3.org/1999/xlink" x="0px" y="0px"
	 viewBox="0 0 256 256" style="enable-background:new 0 0 256 256;" xml:space="preserve">
<style type="text/css">
	.st0{fill:#FFFFFF;}
</style>
<g transform="translate(1.4065934065934016 1.4065934065934016) scale(2.81 2.81)">
	<path class="st0" d="M1.5,29.9h18.7v60H1.5V29.9z M10.8,0.1c6,0,10.8,4.8,10.8,10.8c0,6-4.8,10.8-10.8,10.8C4.8,21.7,0,16.9,0,10.9
		C0,4.9,4.8,0.1,10.8,0.1"/>
	<path class="st0" d="M31.8,29.9h17.9v8.2H50c2.5-4.7,8.6-9.7,17.6-9.7C86.5,28.4,90,40.8,90,57v32.9H71.4V60.7
		c0-7-0.1-15.9-9.7-15.9c-9.7,0-11.2,7.6-11.2,15.4v29.7H31.8V29.9z"/>
</g>
</svg>
