<?xml version="1.0" encoding="utf-8"?>
<!-- Generator: Adobe Illustrator 24.0.2, SVG Export Plug-In . SVG Version: 6.00 Build 0)  -->
<svg version="1.1"
	 id="svg8" inkscape:version="1.0 (1.0+r73+1)" sodipodi:docname="orcid.svg" xmlns:cc="http://creativecommons.org/ns#" xmlns:dc="http://purl.org/dc/elements/1.1/" xmlns:inkscape="http://www.inkscape.org/namespaces/inkscape" xmlns:rdf="http://www.w3.org/1999/02/22-rdf-syntax-ns#" xmlns:sodipodi="http://sodipodi.sourceforge.net/DTD/sodipodi-0.dtd" xmlns:svg="http://www.w3.org/2000/svg"
	 xmlns="http://www.w3.org/2000/svg" xmlns:xlink="http://www.w3.org/1999/xlink" x="0px" y="0px" viewBox="0 0 512 512"
	 style="enable-background:new 0 0 512 512;" xml:space="preserve">
<style type="text/css">
	.st0{fill:#FFFFFF;}
</style>
<title  id="title833">Orcid</title>
<sodipodi:namedview  bordercolor="#666666" borderopacity="1.0" id="base" inkscape:current-layer="layer6" inkscape:cx="256" inkscape:cy="256" inkscape:document-rotation="0" inkscape:document-units="px" inkscape:guide-bbox="true" inkscape:pageopacity="0.0" inkscape:pageshadow="2" inkscape:window-height="713" inkscape:window-maximized="1" inkscape:window-width="1315" inkscape:window-x="51" inkscape:window-y="27" inkscape:zoom="0.75" pagecolor="#ffffff" showgrid="true" showguides="true" units="px">
	<inkscape:grid  empspacing="4" id="grid10" type="xygrid"></inkscape:grid>
	
		<sodipodi:guide  id="guide23" inkscape:color="rgb(0,0,255)" inkscape:label="baseline" inkscape:locked="true" orientation="0,1" position="511.99998,64">
		</sodipodi:guide>
</sodipodi:namedview>
<g id="layer6" inkscape:groupmode="layer" inkscape:label="icon">
	<path id="path2" class="st0" d="M336.6,194.5c-7.1-3.3-13.9-5.6-20.3-6.6c-6.4-1.1-16.6-1.6-30.7-1.6H249v152.7h37.6
		c14.7,0,26.1-1,34.2-3s14.9-4.5,20.4-7.6c5.4-3.1,10.4-6.9,14.9-11.4c14.5-14.7,21.7-33.3,21.7-55.7c0-22.1-7.4-40.1-22.3-54
		C350,202.2,343.7,197.9,336.6,194.5L336.6,194.5z M256,8C119,8,8,119,8,256s111,248,248,248s248-111,248-248S393,8,256,8z
		 M173.7,365.5h-29.4V160.1h29.4V365.5z M158.9,138.7c-11.1,0-20.2-9-20.2-20.2c0-11.1,9.1-20.2,20.2-20.2
		c11.2,0,20.2,9.1,20.2,20.2C179.2,129.7,170.1,138.7,158.9,138.7z M400.3,302.3c-5.3,12.5-12.8,23.6-22.7,33.1
		c-10,9.8-21.6,17.2-34.8,22.2c-7.7,3-14.8,5.1-21.3,6.1c-6.5,1-18.8,1.5-37.1,1.5h-65V160.1h69.2c28,0,50,4.2,66.3,12.5
		c16.3,8.4,29.2,20.7,38.8,37c9.6,16.3,14.4,34,14.4,53.2C408.3,276.6,405.6,289.8,400.3,302.3L400.3,302.3z"/>
</g>
</svg>
