<?xml version="1.0" encoding="utf-8"?>
<!-- Generator: Adobe Illustrator 24.0.2, SVG Export Plug-In . SVG Version: 6.00 Build 0)  -->
<svg version="1.1" id="Layer_1" xmlns="http://www.w3.org/2000/svg" xmlns:xlink="http://www.w3.org/1999/xlink" x="0px" y="0px"
	 viewBox="0 0 48 48" style="enable-background:new 0 0 48 48;" xml:space="preserve">
<style type="text/css">
	.st0{fill:#FFFFFF;}
</style>
<path class="st0" d="M36.3,44c-1.6,0-2.9-0.6-4-1.7c-1.1-1.1-1.7-2.5-1.7-4c0-0.2,0-0.5,0.1-0.8c0.1-0.3,0.1-0.6,0.2-0.9l-15.2-8.8
	c-0.5,0.6-1.1,1-1.9,1.4s-1.5,0.5-2.2,0.5c-1.6,0-2.9-0.6-4-1.7C6.6,26.9,6,25.6,6,24c0-1.6,0.6-2.9,1.7-4s2.5-1.6,4-1.7
	c0.8,0,1.5,0.1,2.2,0.5s1.3,0.7,1.9,1.3l15.1-8.7c-0.1-0.2-0.2-0.5-0.2-0.8c-0.1-0.3-0.1-0.6-0.1-0.9c0-1.6,0.6-3,1.7-4.1
	c1.1-1.1,2.5-1.6,4-1.6c1.6,0,3,0.5,4,1.7S42,8.1,42,9.7c0,1.6-0.5,2.9-1.7,4c-1.1,1.1-2.5,1.7-4,1.7c-0.8,0-1.5-0.1-2.2-0.4
	c-0.7-0.2-1.3-0.7-1.8-1.2l-15.1,8.4c0.1,0.3,0.1,0.6,0.2,0.9c0.1,0.4,0.1,0.6,0.1,0.9s0,0.5-0.1,0.8c0,0.3-0.1,0.5-0.2,0.8
	l15.1,8.6c0.5-0.5,1.1-0.8,1.8-1.1c0.7-0.3,1.4-0.4,2.3-0.4c1.6,0,3,0.6,4,1.7c1.1,1.1,1.7,2.5,1.7,4c0,1.6-0.5,2.9-1.7,4
	C39.3,43.4,38,44,36.3,44z"/>
</svg>
