<?xml version="1.0" encoding="utf-8"?>
<!-- Generator: Adobe Illustrator 24.0.2, SVG Export Plug-In . SVG Version: 6.00 Build 0)  -->
<svg version="1.1" id="Layer_1" xmlns="http://www.w3.org/2000/svg" xmlns:xlink="http://www.w3.org/1999/xlink" x="0px" y="0px"
	 viewBox="0 0 48 48" style="enable-background:new 0 0 48 48;" xml:space="preserve">
<style type="text/css">
	.st0{fill:#FFFFFF;}
</style>
<path class="st0" d="M13,46c-0.8,0-1.5-0.3-2.1-0.9C10.3,44.5,10,43.8,10,43V5c0-0.8,0.3-1.5,0.9-2.1C11.5,2.3,12.2,2,13,2h22
	c0.8,0,1.5,0.3,2.1,0.9C37.7,3.5,38,4.2,38,5v38c0,0.8-0.3,1.5-0.9,2.1C36.5,45.7,35.8,46,35,46H13z M13,38.5h22v-29H13V38.5z"/>
</svg>
