<?xml version="1.0" encoding="utf-8"?>
<!-- Generator: Adobe Illustrator 24.0.2, SVG Export Plug-In . SVG Version: 6.00 Build 0)  -->
<svg version="1.1" id="Layer_1" xmlns="http://www.w3.org/2000/svg" xmlns:xlink="http://www.w3.org/1999/xlink" x="0px" y="0px"
	 viewBox="0 0 48 48" style="enable-background:new 0 0 48 48;" xml:space="preserve">
<style type="text/css">
	.st0{fill:#FFFFFF;}
</style>
<path class="st0" d="M17.6,47.7l-2.5-1.5l6.4-10.9l-4.1-2.5l-3.8,6l-2.5-1.5l11.5-18.6c-1.4-1.2-2.5-2.6-3.1-4c-0.7-1.5-1-3-1-4.6
	c0-1.3,0.1-2.4,0.4-3.5s0.7-2.2,1.3-3.5l2.6,1.4c-0.5,1-0.8,1.9-1,2.7c-0.2,0.9-0.3,1.7-0.3,2.6c0,1.6,0.4,3,1.1,4.4
	s2.1,2.5,3.9,3.5l4.9,2.9c1.9,1.1,3.3,2.5,4.2,4.1c0.9,1.6,1.4,3.5,1.4,5.6c0,1.3-0.2,2.6-0.6,3.9c-0.4,1.3-0.9,2.6-1.6,3.8
	l-2.6-1.5c0.6-1.1,1-2.1,1.3-3.1c0.3-1,0.5-2.1,0.5-3.1c0-1.3-0.2-2.4-0.7-3.5c-0.4-1.1-1.1-1.9-2-2.4L17.6,47.7z M31.9,17.3
	c-1,0-1.9-0.4-2.6-1.1c-0.7-0.7-1.1-1.6-1.1-2.6c0-1,0.4-1.9,1.1-2.6c0.7-0.7,1.6-1.1,2.6-1.1c1,0,1.9,0.4,2.6,1.1
	c0.7,0.7,1.1,1.6,1.1,2.6c0,1-0.4,1.9-1.1,2.6C33.7,16.9,32.8,17.3,31.9,17.3z M27.1,8c-0.9,0-1.6-0.3-2.1-0.8S24.1,5.9,24.1,5
	s0.3-1.6,0.9-2.2S26.3,2,27.1,2c0.9,0,1.6,0.3,2.1,0.9s0.9,1.3,0.9,2.2s-0.3,1.6-0.9,2.2S28,8,27.1,8z"/>
</svg>
