<?xml version="1.0" encoding="utf-8"?>
<!-- Generator: Adobe Illustrator 24.0.2, SVG Export Plug-In . SVG Version: 6.00 Build 0)  -->
<svg version="1.1" id="Layer_1" xmlns="http://www.w3.org/2000/svg" xmlns:xlink="http://www.w3.org/1999/xlink" x="0px" y="0px"
	 viewBox="0 0 48 48" style="enable-background:new 0 0 48 48;" xml:space="preserve">
<style type="text/css">
	.st0{fill:#FFFFFF;}
</style>
<path class="st0" d="M19.2,27.4l1.8-5.8l-4.8-3.7h5.8L24,12l1.9,6h5.9L27,21.7l1.8,5.8L24,23.9L19.2,27.4z M12.2,46V30.8
	c-1.5-1.6-2.6-3.3-3.2-5.1c-0.7-1.9-1-3.8-1-5.6c0-4.5,1.5-8.3,4.6-11.4S19.5,4,24,4s8.3,1.5,11.4,4.6C38.5,11.7,40,15.5,40,20
	c0,1.9-0.3,3.8-1,5.6c-0.6,1.9-1.7,3.6-3.2,5.1V46L24,42L12.2,46z M24,33c3.6,0,6.7-1.3,9.2-3.8S37,23.6,37,20s-1.3-6.7-3.8-9.2
	S27.6,7,24,7s-6.7,1.3-9.2,3.8S11,16.4,11,20s1.3,6.7,3.8,9.2S20.4,33,24,33z M15.2,41.8L24,39l8.8,2.8v-8.5c-1.3,1-2.8,1.7-4.3,2.1
	C27,35.8,25.5,36,24,36s-3-0.2-4.5-0.7s-3-1.1-4.3-2.1V41.8z"/>
</svg>
